G04 #@! TF.GenerationSoftware,KiCad,Pcbnew,6.0.2+dfsg-1*
G04 #@! TF.CreationDate,2023-06-30T14:07:02+08:00*
G04 #@! TF.ProjectId,USB,5553422e-6b69-4636-9164-5f7063625858,rev?*
G04 #@! TF.SameCoordinates,Original*
G04 #@! TF.FileFunction,Copper,L2,Bot*
G04 #@! TF.FilePolarity,Positive*
%FSLAX46Y46*%
G04 Gerber Fmt 4.6, Leading zero omitted, Abs format (unit mm)*
G04 Created by KiCad (PCBNEW 6.0.2+dfsg-1) date 2023-06-30 14:07:02*
%MOMM*%
%LPD*%
G01*
G04 APERTURE LIST*
G04 #@! TA.AperFunction,ComponentPad*
%ADD10O,0.500000X1.000000*%
G04 #@! TD*
G04 #@! TA.AperFunction,ComponentPad*
%ADD11O,1.000000X2.200000*%
G04 #@! TD*
G04 #@! TA.AperFunction,ComponentPad*
%ADD12O,1.000000X1.800000*%
G04 #@! TD*
G04 #@! TA.AperFunction,ComponentPad*
%ADD13C,1.320000*%
G04 #@! TD*
G04 #@! TA.AperFunction,ViaPad*
%ADD14C,0.500000*%
G04 #@! TD*
G04 #@! TA.AperFunction,Conductor*
%ADD15C,0.250000*%
G04 #@! TD*
G04 APERTURE END LIST*
D10*
X101600000Y-96300000D03*
X99200000Y-96300000D03*
D11*
X95680000Y-102471801D03*
X104320000Y-102471801D03*
D12*
X95680000Y-98471800D03*
X104320000Y-98471800D03*
D10*
X100000000Y-96300000D03*
D13*
X96350000Y-100960000D03*
X103650000Y-96300000D03*
X96350000Y-96300000D03*
D10*
X98400000Y-96300000D03*
D13*
X103650000Y-100960000D03*
D14*
X98700000Y-98900000D03*
X94000000Y-98100000D03*
X101600000Y-98900000D03*
X105900000Y-98100000D03*
D15*
X97700000Y-99900000D02*
X98600000Y-99000000D01*
X94000000Y-98100000D02*
X94000000Y-99300000D01*
X98600000Y-99000000D02*
X98700000Y-98900000D01*
X94600000Y-99900000D02*
X97700000Y-99900000D01*
X94000000Y-99300000D02*
X94600000Y-99900000D01*
X105900000Y-98900000D02*
X104900000Y-99900000D01*
X105900000Y-98100000D02*
X105900000Y-98900000D01*
X102600000Y-99900000D02*
X101600000Y-98900000D01*
X104900000Y-99900000D02*
X102600000Y-99900000D01*
G04 #@! TA.AperFunction,Conductor*
G36*
X96070931Y-95775002D02*
G01*
X96091905Y-95791905D01*
X96263095Y-95963095D01*
X96297121Y-96025407D01*
X96300000Y-96052190D01*
X96300000Y-97600000D01*
X103700000Y-97600000D01*
X103700000Y-96052190D01*
X103720002Y-95984069D01*
X103736905Y-95963095D01*
X103908095Y-95791905D01*
X103970407Y-95757879D01*
X103997190Y-95755000D01*
X107619000Y-95755000D01*
X107687121Y-95775002D01*
X107733614Y-95828658D01*
X107745000Y-95881000D01*
X107745000Y-104419000D01*
X107724998Y-104487121D01*
X107671342Y-104533614D01*
X107619000Y-104545000D01*
X92381000Y-104545000D01*
X92312879Y-104524998D01*
X92266386Y-104471342D01*
X92255000Y-104419000D01*
X92255000Y-98093761D01*
X93489340Y-98093761D01*
X93508115Y-98237337D01*
X93566432Y-98369872D01*
X93589952Y-98397853D01*
X93618472Y-98462866D01*
X93619500Y-98478926D01*
X93619500Y-99245967D01*
X93616931Y-99270110D01*
X93616858Y-99271649D01*
X93614667Y-99281828D01*
X93615891Y-99292167D01*
X93618627Y-99315286D01*
X93618978Y-99321236D01*
X93619072Y-99321228D01*
X93619500Y-99326407D01*
X93619500Y-99331608D01*
X93620354Y-99336736D01*
X93620354Y-99336742D01*
X93622675Y-99350685D01*
X93623512Y-99356561D01*
X93629556Y-99407624D01*
X93633530Y-99415899D01*
X93635037Y-99424955D01*
X93639983Y-99434121D01*
X93639983Y-99434122D01*
X93659438Y-99470178D01*
X93662133Y-99475468D01*
X93680956Y-99514666D01*
X93680958Y-99514670D01*
X93684389Y-99521814D01*
X93687991Y-99526100D01*
X93689929Y-99528038D01*
X93691700Y-99529970D01*
X93691743Y-99530049D01*
X93691619Y-99530163D01*
X93692097Y-99530705D01*
X93695189Y-99536436D01*
X93734881Y-99573127D01*
X93738447Y-99576556D01*
X94292741Y-100130849D01*
X94307984Y-100149724D01*
X94309031Y-100150874D01*
X94314679Y-100159622D01*
X94322857Y-100166069D01*
X94341141Y-100180483D01*
X94345595Y-100184441D01*
X94345656Y-100184369D01*
X94349619Y-100187727D01*
X94353296Y-100191404D01*
X94369062Y-100202670D01*
X94373775Y-100206209D01*
X94385701Y-100215611D01*
X94405978Y-100231596D01*
X94414158Y-100238045D01*
X94422821Y-100241087D01*
X94430289Y-100246424D01*
X94440267Y-100249408D01*
X94440269Y-100249409D01*
X94458252Y-100254787D01*
X94479524Y-100261149D01*
X94485157Y-100262979D01*
X94526193Y-100277390D01*
X94526199Y-100277391D01*
X94533676Y-100280017D01*
X94539253Y-100280500D01*
X94541969Y-100280500D01*
X94544614Y-100280614D01*
X94544694Y-100280639D01*
X94544687Y-100280807D01*
X94545410Y-100280853D01*
X94551651Y-100282719D01*
X94605661Y-100280597D01*
X94610608Y-100280500D01*
X97645967Y-100280500D01*
X97670110Y-100283069D01*
X97671649Y-100283142D01*
X97681828Y-100285333D01*
X97715286Y-100281373D01*
X97721236Y-100281022D01*
X97721228Y-100280928D01*
X97726407Y-100280500D01*
X97731608Y-100280500D01*
X97736736Y-100279646D01*
X97736742Y-100279646D01*
X97750685Y-100277325D01*
X97756561Y-100276488D01*
X97797284Y-100271668D01*
X97797285Y-100271668D01*
X97807624Y-100270444D01*
X97815899Y-100266470D01*
X97824955Y-100264963D01*
X97834121Y-100260017D01*
X97834122Y-100260017D01*
X97870178Y-100240562D01*
X97875468Y-100237867D01*
X97914666Y-100219044D01*
X97914670Y-100219042D01*
X97921814Y-100215611D01*
X97926100Y-100212009D01*
X97928038Y-100210071D01*
X97929970Y-100208300D01*
X97930049Y-100208257D01*
X97930163Y-100208381D01*
X97930705Y-100207903D01*
X97936436Y-100204811D01*
X97973127Y-100165119D01*
X97976556Y-100161553D01*
X98697675Y-99440433D01*
X98759427Y-99406714D01*
X98763123Y-99406782D01*
X98864593Y-99379118D01*
X98894160Y-99371057D01*
X98894161Y-99371057D01*
X98902823Y-99368695D01*
X98910473Y-99363998D01*
X98910475Y-99363997D01*
X99018569Y-99297627D01*
X99018570Y-99297627D01*
X99026217Y-99292931D01*
X99123388Y-99185579D01*
X99173745Y-99081641D01*
X99182607Y-99063350D01*
X99182607Y-99063349D01*
X99186522Y-99055269D01*
X99203339Y-98955313D01*
X99209740Y-98917270D01*
X99209740Y-98917265D01*
X99210546Y-98912477D01*
X99210698Y-98900000D01*
X99209805Y-98893761D01*
X101089340Y-98893761D01*
X101090504Y-98902663D01*
X101090504Y-98902666D01*
X101105909Y-99020467D01*
X101108115Y-99037337D01*
X101166432Y-99169872D01*
X101259603Y-99280713D01*
X101267080Y-99285690D01*
X101372666Y-99355974D01*
X101372668Y-99355975D01*
X101380139Y-99360948D01*
X101518349Y-99404129D01*
X101527323Y-99404293D01*
X101533524Y-99405298D01*
X101602473Y-99440582D01*
X102292741Y-100130850D01*
X102307984Y-100149723D01*
X102309029Y-100150871D01*
X102314679Y-100159622D01*
X102322857Y-100166069D01*
X102341136Y-100180479D01*
X102345594Y-100184441D01*
X102345655Y-100184369D01*
X102349618Y-100187727D01*
X102353296Y-100191405D01*
X102369058Y-100202669D01*
X102373788Y-100206220D01*
X102414158Y-100238045D01*
X102422818Y-100241086D01*
X102430289Y-100246425D01*
X102479540Y-100261154D01*
X102485181Y-100262987D01*
X102526193Y-100277390D01*
X102526199Y-100277391D01*
X102533676Y-100280017D01*
X102539253Y-100280500D01*
X102541970Y-100280500D01*
X102544611Y-100280614D01*
X102544694Y-100280639D01*
X102544687Y-100280808D01*
X102545411Y-100280854D01*
X102551652Y-100282720D01*
X102605688Y-100280597D01*
X102610635Y-100280500D01*
X104845967Y-100280500D01*
X104870110Y-100283069D01*
X104871649Y-100283142D01*
X104881828Y-100285333D01*
X104915286Y-100281373D01*
X104921236Y-100281022D01*
X104921228Y-100280928D01*
X104926407Y-100280500D01*
X104931608Y-100280500D01*
X104936736Y-100279646D01*
X104936742Y-100279646D01*
X104950685Y-100277325D01*
X104956561Y-100276488D01*
X104997284Y-100271668D01*
X104997285Y-100271668D01*
X105007624Y-100270444D01*
X105015899Y-100266470D01*
X105024955Y-100264963D01*
X105034121Y-100260017D01*
X105034122Y-100260017D01*
X105070178Y-100240562D01*
X105075468Y-100237867D01*
X105114666Y-100219044D01*
X105114670Y-100219042D01*
X105121814Y-100215611D01*
X105126100Y-100212009D01*
X105128038Y-100210071D01*
X105129970Y-100208300D01*
X105130049Y-100208257D01*
X105130163Y-100208381D01*
X105130705Y-100207903D01*
X105136436Y-100204811D01*
X105173139Y-100165106D01*
X105176568Y-100161541D01*
X106130850Y-99207259D01*
X106149723Y-99192016D01*
X106150871Y-99190971D01*
X106159622Y-99185321D01*
X106180479Y-99158864D01*
X106184441Y-99154406D01*
X106184369Y-99154345D01*
X106187727Y-99150382D01*
X106191405Y-99146704D01*
X106202669Y-99130942D01*
X106206220Y-99126212D01*
X106231596Y-99094022D01*
X106238045Y-99085842D01*
X106241086Y-99077182D01*
X106246425Y-99069711D01*
X106261154Y-99020460D01*
X106262987Y-99014819D01*
X106277390Y-98973807D01*
X106277391Y-98973801D01*
X106280017Y-98966324D01*
X106280500Y-98960747D01*
X106280500Y-98958030D01*
X106280614Y-98955389D01*
X106280639Y-98955306D01*
X106280808Y-98955313D01*
X106280854Y-98954589D01*
X106282720Y-98948348D01*
X106280597Y-98894312D01*
X106280500Y-98889365D01*
X106280500Y-98481517D01*
X106300502Y-98413396D01*
X106313079Y-98396968D01*
X106323388Y-98385579D01*
X106327670Y-98376742D01*
X106382607Y-98263350D01*
X106382607Y-98263349D01*
X106386522Y-98255269D01*
X106410546Y-98112477D01*
X106410698Y-98100000D01*
X106390171Y-97956664D01*
X106330239Y-97824851D01*
X106324381Y-97818052D01*
X106324378Y-97818048D01*
X106241580Y-97721957D01*
X106241577Y-97721955D01*
X106235720Y-97715157D01*
X106114213Y-97636400D01*
X105975486Y-97594912D01*
X105966510Y-97594857D01*
X105966509Y-97594857D01*
X105905891Y-97594487D01*
X105830690Y-97594027D01*
X105822058Y-97596494D01*
X105700097Y-97631350D01*
X105700095Y-97631351D01*
X105691466Y-97633817D01*
X105569006Y-97711084D01*
X105473155Y-97819615D01*
X105411617Y-97950686D01*
X105410237Y-97959548D01*
X105410236Y-97959552D01*
X105390721Y-98084888D01*
X105390721Y-98084892D01*
X105389340Y-98093761D01*
X105408115Y-98237337D01*
X105466432Y-98369872D01*
X105489952Y-98397853D01*
X105518472Y-98462866D01*
X105519500Y-98478926D01*
X105519500Y-98690202D01*
X105499498Y-98758323D01*
X105482595Y-98779297D01*
X104779297Y-99482595D01*
X104716985Y-99516621D01*
X104690202Y-99519500D01*
X102809798Y-99519500D01*
X102741677Y-99499498D01*
X102720703Y-99482595D01*
X102135798Y-98897690D01*
X102101772Y-98835378D01*
X102100171Y-98826490D01*
X102090171Y-98756664D01*
X102066146Y-98703824D01*
X102033956Y-98633025D01*
X102033954Y-98633022D01*
X102030239Y-98624851D01*
X102024381Y-98618052D01*
X102024378Y-98618048D01*
X101941580Y-98521957D01*
X101941577Y-98521955D01*
X101935720Y-98515157D01*
X101814213Y-98436400D01*
X101675486Y-98394912D01*
X101666510Y-98394857D01*
X101666509Y-98394857D01*
X101605891Y-98394487D01*
X101530690Y-98394027D01*
X101522058Y-98396494D01*
X101400097Y-98431350D01*
X101400095Y-98431351D01*
X101391466Y-98433817D01*
X101269006Y-98511084D01*
X101173155Y-98619615D01*
X101111617Y-98750686D01*
X101110237Y-98759548D01*
X101110236Y-98759552D01*
X101090721Y-98884888D01*
X101090721Y-98884892D01*
X101089340Y-98893761D01*
X99209805Y-98893761D01*
X99200166Y-98826457D01*
X99191444Y-98765550D01*
X99191443Y-98765547D01*
X99190171Y-98756664D01*
X99186457Y-98748495D01*
X99133956Y-98633025D01*
X99133954Y-98633022D01*
X99130239Y-98624851D01*
X99124381Y-98618052D01*
X99124378Y-98618048D01*
X99041580Y-98521957D01*
X99041577Y-98521955D01*
X99035720Y-98515157D01*
X98914213Y-98436400D01*
X98775486Y-98394912D01*
X98766510Y-98394857D01*
X98766509Y-98394857D01*
X98705891Y-98394487D01*
X98630690Y-98394027D01*
X98622058Y-98396494D01*
X98500097Y-98431350D01*
X98500095Y-98431351D01*
X98491466Y-98433817D01*
X98369006Y-98511084D01*
X98273155Y-98619615D01*
X98211617Y-98750686D01*
X98210237Y-98759549D01*
X98210236Y-98759552D01*
X98199578Y-98828007D01*
X98169334Y-98892239D01*
X98164174Y-98897717D01*
X97869657Y-99192235D01*
X97579297Y-99482595D01*
X97516984Y-99516620D01*
X97490201Y-99519500D01*
X94809800Y-99519500D01*
X94741679Y-99499498D01*
X94720705Y-99482596D01*
X94417405Y-99179297D01*
X94383380Y-99116984D01*
X94380500Y-99090201D01*
X94380500Y-98481517D01*
X94400502Y-98413396D01*
X94413079Y-98396968D01*
X94423388Y-98385579D01*
X94427670Y-98376742D01*
X94482607Y-98263350D01*
X94482607Y-98263349D01*
X94486522Y-98255269D01*
X94510546Y-98112477D01*
X94510698Y-98100000D01*
X94490171Y-97956664D01*
X94430239Y-97824851D01*
X94424381Y-97818052D01*
X94424378Y-97818048D01*
X94341580Y-97721957D01*
X94341577Y-97721955D01*
X94335720Y-97715157D01*
X94214213Y-97636400D01*
X94075486Y-97594912D01*
X94066510Y-97594857D01*
X94066509Y-97594857D01*
X94005891Y-97594487D01*
X93930690Y-97594027D01*
X93922058Y-97596494D01*
X93800097Y-97631350D01*
X93800095Y-97631351D01*
X93791466Y-97633817D01*
X93669006Y-97711084D01*
X93573155Y-97819615D01*
X93511617Y-97950686D01*
X93510237Y-97959548D01*
X93510236Y-97959552D01*
X93490721Y-98084888D01*
X93490721Y-98084892D01*
X93489340Y-98093761D01*
X92255000Y-98093761D01*
X92255000Y-95881000D01*
X92275002Y-95812879D01*
X92328658Y-95766386D01*
X92381000Y-95755000D01*
X96002810Y-95755000D01*
X96070931Y-95775002D01*
G37*
G04 #@! TD.AperFunction*
M02*
