%FSLAX45Y45*%
G04 Gerber Fmt 4.5, Leading zero omitted, Abs format (unit mm)*
G04 Created by KiCad (PCBNEW 6.0.2+dfsg-1) date 2023-06-30 14:06:58*
%MOMM*%
%LPD*%
G01*
G04 APERTURE LIST*
%TA.AperFunction,Profile*%
%ADD10C,0.100000*%
%TD*%
%ADD11C,0.200000*%
G04 APERTURE END LIST*
D10*
X9200000Y-10480000D02*
X9200000Y-9550000D01*
X10800000Y-10480000D02*
X10800000Y-9550000D01*
X10800000Y-10480000D02*
X9200000Y-10480000D01*
X10800000Y-9550000D02*
X9200000Y-9550000D01*
D11*
X9452619Y-10795476D02*
X9452619Y-10595476D01*
X9500238Y-10595476D01*
X9528810Y-10605000D01*
X9547857Y-10624048D01*
X9557381Y-10643095D01*
X9566905Y-10681190D01*
X9566905Y-10709762D01*
X9557381Y-10747857D01*
X9547857Y-10766905D01*
X9528810Y-10785952D01*
X9500238Y-10795476D01*
X9452619Y-10795476D01*
X9652619Y-10795476D02*
X9652619Y-10662143D01*
X9652619Y-10700238D02*
X9662143Y-10681190D01*
X9671667Y-10671667D01*
X9690714Y-10662143D01*
X9709762Y-10662143D01*
X9776429Y-10795476D02*
X9776429Y-10662143D01*
X9776429Y-10595476D02*
X9766905Y-10605000D01*
X9776429Y-10614524D01*
X9785952Y-10605000D01*
X9776429Y-10595476D01*
X9776429Y-10614524D01*
X9900238Y-10795476D02*
X9881190Y-10785952D01*
X9871667Y-10766905D01*
X9871667Y-10595476D01*
X10005000Y-10795476D02*
X9985952Y-10785952D01*
X9976429Y-10766905D01*
X9976429Y-10595476D01*
X10233571Y-10795476D02*
X10233571Y-10595476D01*
X10300238Y-10738333D01*
X10366905Y-10595476D01*
X10366905Y-10795476D01*
X10547857Y-10795476D02*
X10547857Y-10690714D01*
X10538333Y-10671667D01*
X10519286Y-10662143D01*
X10481190Y-10662143D01*
X10462143Y-10671667D01*
X10547857Y-10785952D02*
X10528810Y-10795476D01*
X10481190Y-10795476D01*
X10462143Y-10785952D01*
X10452619Y-10766905D01*
X10452619Y-10747857D01*
X10462143Y-10728810D01*
X10481190Y-10719286D01*
X10528810Y-10719286D01*
X10547857Y-10709762D01*
X10643095Y-10662143D02*
X10643095Y-10862143D01*
X10643095Y-10671667D02*
X10662143Y-10662143D01*
X10700238Y-10662143D01*
X10719286Y-10671667D01*
X10728810Y-10681190D01*
X10738333Y-10700238D01*
X10738333Y-10757381D01*
X10728810Y-10776429D01*
X10719286Y-10785952D01*
X10700238Y-10795476D01*
X10662143Y-10795476D01*
X10643095Y-10785952D01*
X10824048Y-10776429D02*
X10833571Y-10785952D01*
X10824048Y-10795476D01*
X10814524Y-10785952D01*
X10824048Y-10776429D01*
X10824048Y-10795476D01*
X10824048Y-10671667D02*
X10833571Y-10681190D01*
X10824048Y-10690714D01*
X10814524Y-10681190D01*
X10824048Y-10671667D01*
X10824048Y-10690714D01*
M02*
